<svg xmlns="http://www.w3.org/2000/svg" xmlns:xlink="http://www.w3.org/1999/xlink" viewBox="0 0 344.38 344.38"><defs><style>.cls-1{fill:none;}.cls-2{clip-path:url(#clip-path);}</style><clipPath id="clip-path"><path class="cls-1" d="M10.89,116.36,10.46,119l3.59,169.34,1.25,5.25-.77.72-.62.57-.38,1.2,0,1.58.53,1.58.86,1.29,1.82.91,1.58-.82L19.7,300l80.91,15.27,1.82.9,1.14.41,1.44.26h1.15l.93-.23.89-.06h1.88l209-97.4,1-.91.76-1.39.38-1.09.55-1.9.28-10,.58-.87,7-2.58,1.86-1.87.24-3.49.19-18.38-.44-.45-.7.45c-5.23,4.23-5.89-6.47,1.34-7.47a5.49,5.49,0,0,1,.35-.54s1.46-67.15,1.46-67.15l-1.12.25s-1.28.43-1.28.43l-.59.7-.38.2-.62-.3-.4-.63-.42-1.17-.31-1.81s.18-1.07.18-1.11a10.7,10.7,0,0,1,.4-1.15c.07-.13,1.13-1.06,1.13-1.06s1.32-.59,1.36-.59l1.38-.26,1.51-1.33V72.22l-1.17-1.77-1.44.43-5.45,2-1.15.24-.72-.52V62.36l-.77-3.73-.14-2.35-1.29-1.53-84-7.85L13.8,108.1l-1.6,1.4-.83.64-.91.38-.94.38-.83,1.47v1.85l.9.83.95.45Z"/></clipPath></defs><g id="Layer_2" data-name="Layer 2"><g id="Layer_1-2" data-name="Layer 1"><g class="cls-2"><image width="630" height="630" transform="scale(0.55)" xlink:href="Asset%2011.png"/></g></g></g></svg>